Coordinates
version=1
nRows=11
nColumns=63
inDegrees=yes

Units are S.I. units (second, meters, Newtons, ...)
If the header above contains a line with 'inDegrees', this indicates whether rotational values are in degrees (yes) or radians (no).

endheader
time	pelvis_tilt	pelvis_list	pelvis_rotation	pelvis_tx	pelvis_ty	pelvis_tz	hip_flexion_r	hip_adduction_r	hip_rotation_r	knee_angle_r	knee_angle_r_beta	ankle_angle_r	subtalar_angle_r	mtp_angle_r	hip_flexion_l	hip_adduction_l	hip_rotation_l	knee_angle_l	knee_angle_l_beta	ankle_angle_l	subtalar_angle_l	mtp_angle_l	L5_S1_Flex_Ext	L5_S1_Lat_Bending	L5_S1_axial_rotation	L4_L5_Flex_Ext	L4_L5_Lat_Bending	L4_L5_axial_rotation	L3_L4_Flex_Ext	L3_L4_Lat_Bending	L3_L4_axial_rotation	L2_L3_Flex_Ext	L2_L3_Lat_Bending	L2_L3_axial_rotation	L1_L2_Flex_Ext	L1_L2_Lat_Bending	L1_L2_axial_rotation	L1_T12_Flex_Ext	L1_T12_Lat_Bending	L1_T12_axial_rotation	Abs_r3	Abs_r2	Abs_r1	Abs_t1	Abs_t2	neck_flexion	neck_bending	neck_rotation	arm_flex_r	arm_add_r	arm_rot_r	elbow_flex_r	pro_sup_r	wrist_flex_r	wrist_dev_r	arm_flex_l	arm_add_l	arm_rot_l	elbow_flex_l	pro_sup_l	wrist_flex_l	wrist_dev_l
      0.00000000	     -0.73627883	     -5.40064526	     89.09277190	      0.23647845	      0.85866458	      0.59914333	      4.08678792	     -0.73446016	      0.25899404	      9.62520540	      0.16799153	     20.71389709	      3.69026566	      0.00000000	      0.53607915	      0.27413941	     -0.05136364	      1.15588220	      0.02017395	     14.87083670	    -13.50605165	      0.00000000	      0.11557754	     -0.04282712	      0.30984343	      0.21463906	     -0.05696007	      0.32920864	      0.18988235	     -0.10412985	      0.32920864	      0.13209358	     -0.10412985	      0.27111300	      0.10732531	     -0.08733306	      0.25174779	      0.06604101	     -0.06633920	      0.23238257	      0.82555884	     -0.48446891	      1.72325619	      0.00000000	      0.00000000	     27.72786827	     -0.21445319	      6.35707871	     16.44661982	    -10.38755647	     70.15564594	     46.92978149	     70.00677763	      7.74129113	     -3.36568279	      5.14044069	    -14.48648019	     41.40106995	     55.19710068	     83.07941222	     15.04858919	     -1.58471295
      0.01923077	     -0.88672481	     -5.19029459	     89.19745078	      0.23658321	      0.85847560	      0.59895133	      4.11276161	     -1.02976386	     -1.65320593	     10.27280757	      0.17929432	     21.56121504	      5.84912317	      0.00000000	      0.45376124	      0.40789158	     -0.81947697	      1.48927238	      0.02599271	     15.55026204	    -11.96638798	      0.00000000	      0.09567839	     -0.06611470	      0.46953998	      0.17768434	     -0.08793255	      0.49888623	      0.15719003	     -0.16075128	      0.49888623	      0.10935084	     -0.16075128	      0.41084749	      0.08884696	     -0.13482109	      0.38150124	      0.05467063	     -0.10241167	      0.35215499	      0.68342119	     -0.74790269	      2.61144053	      0.00000000	      0.00000000	     27.64504115	     -0.68873015	      5.34083480	     14.34218341	    -10.25479424	     64.66443440	     47.26904884	     71.53070136	      8.86645128	     -0.96138350	      6.23328842	    -14.28916790	     43.44105196	     54.19291917	     81.63679568	     15.26042555	     -1.10292903
      0.03846154	     -1.07931463	     -5.00002061	     89.10119465	      0.23678993	      0.85832382	      0.59873209	      4.15486626	     -1.35513786	     -3.03871201	     10.87048871	      0.18972582	     22.21515597	      7.74276257	      0.00000000	      0.37469323	      0.58725910	     -1.89457411	      1.80341482	      0.03147553	     16.16858058	    -10.42579707	      0.00000000	      0.07626434	     -0.09146246	      0.59647619	      0.14163051	     -0.12164507	      0.63375596	      0.12529469	     -0.22238183	      0.63375596	      0.08716252	     -0.22238183	      0.52191667	      0.07081907	     -0.18651025	      0.48463691	      0.04357745	     -0.14167535	      0.44735715	      0.54474857	     -1.03464166	      3.31742165	      0.00000000	      0.00000000	     27.58624191	     -0.96223109	      4.64361023	     13.02685546	    -10.05244698	     61.28490935	     47.44872785	     72.44121912	      9.42233270	      0.34116439	      6.87634660	    -14.20347167	     44.81963626	     53.62566902	     79.91106858	     14.91681488	     -0.77115521
      0.05769231	     -1.21261227	     -4.87307308	     88.94091931	      0.23713698	      0.85813665	      0.59848496	      4.25280802	     -1.58964597	     -4.03088446	     11.42310915	      0.19937087	     22.73554450	      9.31071079	      0.00000000	      0.32366316	      0.70385286	     -2.72959811	      2.04790505	      0.03574269	     16.64120680	     -9.36499661	      0.00000000	      0.06426499	     -0.10917589	      0.67742580	      0.11934652	     -0.14520393	      0.71976491	      0.10558095	     -0.26545026	      0.71976491	      0.07344846	     -0.26545026	      0.59274757	      0.05967647	     -0.22263148	      0.55040846	      0.03672102	     -0.16911345	      0.50806935	      0.45903841	     -1.23501951	      3.76763907	      0.00000000	      0.00000000	     27.55831155	     -1.11290374	      4.27957679	     12.31152838	     -9.86302372	     59.50375408	     47.55112609	     72.58150814	      9.56644538	      1.31102564	      7.16090652	    -14.21963788	     45.59508140	     53.40887748	     78.31186396	     14.31017516	     -0.55661089
      0.07692308	     -1.31519008	     -4.79883098	     88.86635404	      0.23727504	      0.85796027	      0.59820285	      4.32986808	     -1.76571067	     -4.72003499	     11.81718200	      0.20624873	     23.10958442	     10.43907050	      0.00000000	      0.30761624	      0.79630760	     -3.29354362	      2.23019916	      0.03892432	     16.96463726	     -8.65194809	      0.00000000	      0.05909314	     -0.12093547	      0.70553291	      0.10974188	     -0.16084417	      0.74962872	      0.09708412	     -0.29404250	      0.74962872	      0.06753755	     -0.29404250	      0.61734130	      0.05487389	     -0.24661161	      0.57324549	      0.03376582	     -0.18732904	      0.52914968	      0.42209641	     -1.36804622	      3.92396239	      0.00000000	      0.00000000	     27.54102042	     -1.06049755	      4.27363219	     11.98163776	     -9.71100283	     58.70957802	     47.46840748	     72.04570615	      9.94942868	      1.80721996	      7.20890668	    -14.29065872	     45.97780035	     53.40748637	     76.85611350	     13.48070427	     -0.55770519
      0.09615385	     -1.38872257	     -4.77390534	     88.99344387	      0.23715763	      0.85779777	      0.59790601	      4.40201702	     -1.91602375	     -5.50478094	     12.12564030	      0.21163235	     23.43635287	     11.47406757	      0.00000000	      0.32171480	      0.86145288	     -3.43051488	      2.33031470	      0.04067166	     17.15429492	     -8.26213512	      0.00000000	      0.05989921	     -0.12976331	      0.67439733	      0.11123882	     -0.17258520	      0.71654717	      0.09840841	     -0.31550650	      0.71654717	      0.06845881	     -0.31550650	      0.59009767	      0.05562241	     -0.26461333	      0.54794783	      0.03422641	     -0.20100336	      0.50579800	      0.42785407	     -1.46790847	      3.75079564	      0.00000000	      0.00000000	     27.54251268	     -1.07021543	      4.28444721	     11.89883686	     -9.61944827	     58.54534634	     47.46050395	     72.33826320	      9.84360656	      2.04104769	      7.04893900	    -14.34848096	     45.65549191	     53.55921590	     77.17038247	     12.98252556	     -0.69545616
      0.11538462	     -1.42753068	     -4.75496222	     88.92947974	      0.23727561	      0.85764104	      0.59764601	      4.47945496	     -1.92087679	     -5.18490311	     12.32177663	      0.21505557	     23.67121045	     11.35422899	      0.00000000	      0.27760008	      0.91776069	     -2.84309189	      2.31702751	      0.04043976	     16.95841802	     -9.27061092	      0.00000000	      0.06048266	     -0.13385061	      0.66820834	      0.11232235	     -0.17802131	      0.70997136	      0.09936696	     -0.32544437	      0.70997136	      0.06912563	     -0.32544437	      0.58468230	      0.05616420	     -0.27294816	      0.54291928	      0.03455979	     -0.20733459	      0.50115626	      0.43202158	     -1.51414485	      3.71637433	      0.00000000	      0.00000000	     27.54906073	     -1.02063760	      4.40093206	     11.90529454	     -9.56791743	     58.54430720	     47.47710659	     72.91381695	      9.75230205	      2.15801445	      6.86209412	    -14.41331262	     45.15999763	     53.78490545	     78.13544117	     12.50211036	     -1.00407144
      0.13461538	     -1.45812899	     -4.74631857	     88.99782477	      0.23720052	      0.85756220	      0.59750377	      4.55290012	     -1.94480597	     -5.12982950	     12.47143423	      0.21766759	     24.01465683	     11.49172720	      0.00000000	      0.26743753	      0.95392637	     -2.71621096	      2.31137313	      0.04034107	     16.91320143	     -9.39226430	      0.00000000	      0.05933598	     -0.13665528	      0.64934109	      0.11019285	     -0.18175152	      0.68992491	      0.09748308	     -0.33226365	      0.68992491	      0.06781509	     -0.33226365	      0.56817345	      0.05509939	     -0.27866745	      0.52758964	      0.03390458	     -0.21167903	      0.48700582	      0.42383097	     -1.54587187	      3.61144034	      0.00000000	      0.00000000	     27.56668099	     -0.96648734	      4.51516294	     12.02588996	     -9.57789765	     58.86554261	     47.46086997	     72.94900663	      9.66379378	      2.04801142	      6.80435554	    -14.47481563	     44.89838428	     53.97116739	     79.80007755	     11.81540266	     -1.57696432
      0.15384615	     -1.45600952	     -4.71991976	     88.80215390	      0.23747031	      0.85755651	      0.59745755	      4.61670985	     -1.90305152	     -4.73800306	     12.54288813	      0.21891470	     24.23721480	     11.30627816	      0.00000000	      0.19314069	      0.94871534	     -3.03838985	      2.25808604	      0.03941104	     16.97704724	     -9.19602960	      0.00000000	      0.05525619	     -0.13456079	      0.68148230	      0.10261628	     -0.17896584	      0.72407495	      0.09078040	     -0.32717109	      0.72407495	      0.06315230	     -0.32717109	      0.59629702	      0.05131090	     -0.27439635	      0.55370437	      0.03157339	     -0.20843466	      0.51111173	      0.39468947	     -1.52217852	      3.79020013	      0.00000000	      0.00000000	     27.58016741	     -0.98149972	      4.63778001	     12.19324540	     -9.59571049	     59.30886523	     47.34228347	     72.17338575	      9.66814188	      1.97329467	      6.91066758	    -14.60599423	     45.18472097	     54.15786546	     80.54895626	     10.89296652	     -1.86896471
      0.17307692	     -1.44209194	     -4.73327545	     88.89426168	      0.23731551	      0.85753322	      0.59740196	      4.64945010	     -1.87764697	     -4.64756472	     12.54481163	      0.21894827	     24.38519315	     11.09233542	      0.00000000	      0.17169261	      0.94617061	     -2.77937166	      2.17539409	      0.03796779	     16.87501737	     -9.43394808	      0.00000000	      0.05743766	     -0.13181483	      0.66950698	      0.10666747	     -0.17531372	      0.71135117	      0.09436433	     -0.32049457	      0.71135117	      0.06564550	     -0.32049457	      0.58581861	      0.05333661	     -0.26879680	      0.54397442	      0.03281988	     -0.20418117	      0.50213024	      0.41027144	     -1.49111570	      3.72359699	      0.00000000	      0.00000000	     27.59659378	     -1.02239828	      4.62368607	     12.18294729	     -9.60353280	     59.30136022	     47.32886292	     72.30815079	      9.52040667	      1.95049325	      6.94930652	    -14.55194409	     45.10807989	     54.11386963	     82.00722104	     10.69351341	     -2.12972437
      0.19230769	     -1.40036795	     -4.76253612	     89.02125744	      0.23714642	      0.85750520	      0.59739454	      4.66991093	     -1.76480317	     -4.08778164	     12.49903913	      0.21814939	     24.31843664	     10.07868900	      0.00000000	      0.16118298	      0.90779956	     -2.50062077	      2.07110476	      0.03614760	     16.78626400	     -9.62756437	      0.00000000	      0.06035201	     -0.12644935	      0.64011869	      0.11207972	     -0.16817764	      0.68012611	      0.09915232	     -0.30744895	      0.68012611	      0.06897631	     -0.30744895	      0.56010386	      0.05604288	     -0.25785552	      0.52009644	      0.03448514	     -0.19587005	      0.48008902	      0.43108838	     -1.43042036	      3.56014813	      0.00000000	      0.00000000	     27.59483714	     -1.04733444	      4.63176760	     12.17781185	     -9.60150398	     59.21565793	     47.36861433	     73.03455916	      9.36887714	      2.10038246	      6.91461608	    -14.45404070	     44.86405093	     54.13110685	     82.60674661	     10.91732121	     -1.45677249
